# xmcd
#
# Track frame offsets:
#	150
#	19392
#	44672
#	65155
#	88735
#	126387
#	151832
#	171262
#
# Disc length: 2626 seconds
#
# Revision: 1
# Processed by: cddbd v1.5PL3 Copyright (c) Steve Scherf et al.
# Submitted via: CDex 1.50Beta5
#
DISCID=720a4008
DTITLE=Belly To Belly - beautiful days
DYEAR=2001
DGENRE=Pop
TTITLE0=beautiful days "Original Mix"
TTITLE1=pain "Original Mix"
TTITLE2=inside
TTITLE3=beautiful days "Huge urgent mix"
TTITLE4=beautiful days "SUGIURUMN MIX"
TTITLE5=pain "Original Mix -Instrumental-"
TTITLE6=beautiful days "Original Mix -Instrumental-"
TTITLE7=pain "suitcase jam"
EXTD=
EXTT0=
EXTT1=
EXTT2=
EXTT3=
EXTT4=
EXTT5=
EXTT6=
EXTT7=
PLAYORDER=
